<?xml version="1.0" encoding="UTF-8"?>
<svg width="345px" height="367px" viewBox="0 0 345 367" version="1.1" xmlns="http://www.w3.org/2000/svg" xmlns:xlink="http://www.w3.org/1999/xlink">
    <!-- Generator: Sketch 40 (33762) - http://www.bohemiancoding.com/sketch -->
    <title>Box</title>
    <desc>Created with Sketch.</desc>
    <defs></defs>
    <g id="Page-1" stroke="none" stroke-width="1" fill="none" fill-rule="evenodd">
        <g id="Box">
            <path d="M344.79,289.27 L344.79,289.63 L344.79,289.96 L344.73,290.35 C344.394722,292.845384 342.745136,294.968463 340.41,295.91 L176.81,365.85 C175.770155,366.519647 174.574768,366.908922 173.34,366.98 C171.625225,367.151566 169.906997,366.689103 168.51,365.68 L5.33,295.91 C3.75891043,295.265011 2.47589005,294.070843 1.72,292.55 L1.53,292.17 L1.53,292.08 C1.11922754,291.161801 0.911170641,290.165856 0.92,289.16 L0.92,77.51 C0.88012967,73.9899047 3.43954926,70.978321 6.92,70.45 L169.99,0.71 C170.748364,0.368431072 171.560577,0.161993635 172.39,0.1 L172.52,0.1 L172.61,0.1 C172.846429,0.0850087445 173.083571,0.0850087445 173.32,0.1 L173.79,0.1 L174.01,0.1 L174.48,0.21 L174.7,0.27 C174.912556,0.312711318 175.122823,0.366112442 175.33,0.43 L175.39,0.43 L175.83,0.62 L339.01,70.39 C342.405914,70.9848776 344.877575,73.9424205 344.86,77.39 L344.86,289.27 L344.79,289.27 Z M330.68,284.7 L330.68,88.39 L179.89,152.87 L179.89,349.2 L330.68,284.7 Z M172.84,140.53 L319.84,77.67 L285.23,62.88 L284.81,63.07 L138.26,125.76 L172.84,140.53 Z M118,119.06 L267.3,55.22 L225.3,37.28 L71.44,103.11 L71.44,186.21 L89.44,177.21 C92.6170657,175.636822 96.4681107,176.663767 98.44,179.61 L113.73,202.56 L113.73,127.08 C113.710041,126.803693 113.710041,126.526307 113.73,126.25 C113.42817,123.177509 115.157701,120.265255 118,119.06 L118,119.06 Z M60.82,92.28 L207.39,29.59 L172.81,14.82 L25.81,77.67 L60.42,92.47 L60.82,92.28 Z M165.75,349.18 L165.75,152.87 L127.84,136.67 L127.84,225 C128.274955,228.391696 126.220203,231.608562 122.96,232.64 L122.71,232.69 L122.3,232.8 C122.06,232.86 121.82,232.9 121.58,232.94 C121.34,232.98 121.12,232.94 120.89,232.94 L120.18,232.94 C119.712902,232.90222 119.250667,232.818481 118.8,232.69 L118.8,232.69 C118.585547,232.630101 118.375122,232.556619 118.17,232.47 C116.61235,231.844819 115.331186,230.680771 114.56,229.19 L90.17,192.63 L67.55,203.95 C65.362464,205.051223 62.7601522,204.938267 60.6762632,203.651639 C58.5923741,202.365011 57.3255203,200.089078 57.33,197.64 L57.33,106.47 L15,88.36 L15,284.7 L165.75,349.18 Z" id="Shape" fill="#2B2B2B"></path>
            <path d="M330.68,88.39 L330.68,284.7 L179.89,349.2 L179.89,152.87 L330.68,88.39 Z M286.23,274.67 C289.806044,273.140171 291.464829,269.001044 289.935,265.425 C288.405171,261.848956 284.266044,260.190171 280.69,261.72 L239.52,279.3 L198.38,296.9 C196.057774,297.889626 194.439907,300.04297 194.135835,302.54889 C193.831762,305.05481 194.88768,307.532596 196.905835,309.048891 C198.923989,310.565185 201.597774,310.889626 203.92,309.9 L245.09,292.3 L286.23,274.67 Z M245.09,264.14 C248.32188,262.883886 250.160557,259.464153 249.426045,256.075442 C248.691534,252.686731 245.601926,250.335216 242.14,250.53 L242.06,250.53 C241.183206,250.568999 240.321566,250.772536 239.52,251.13 L198.38,268.71 C196.057774,269.699626 194.439907,271.85297 194.135835,274.35889 C193.831762,276.86481 194.88768,279.342596 196.905835,280.858891 C198.923989,282.375185 201.597774,282.699626 203.92,281.71 L245.09,264.14 Z" id="Shape" fill="#F5A623"></path>
            <polygon id="Shape" fill="#F5A623" points="319.88 77.67 172.88 140.53 138.3 125.76 284.89 63.07 285.31 62.88"></polygon>
            <path d="M290,265.44 C291.493512,269.035396 289.799198,273.161654 286.21,274.67 L245.07,292.28 L203.9,309.88 C201.577774,310.869626 198.903989,310.545185 196.885835,309.028891 C194.86768,307.512596 193.811762,305.03481 194.115835,302.52889 C194.419907,300.02297 196.037774,297.869626 198.36,296.88 L239.5,279.28 L280.67,261.7 C282.397253,260.927135 284.363823,260.886483 286.121539,261.587308 C287.879255,262.288134 289.278359,263.670727 290,265.42 L290,265.44 Z" id="Shape" fill="#2B2B2B"></path>
            <path d="M267.33,55.22 L118,119.06 C115.1695,120.275081 113.453496,123.185002 113.76,126.25 C113.740041,126.526307 113.740041,126.803693 113.76,127.08 L113.76,202.55 L98.47,179.6 C96.4981107,176.653767 92.6470657,175.626822 89.47,177.2 L71.47,186.2 L71.47,103.1 L225.39,37.27 L267.33,55.22 Z" id="Shape" fill="#00ACC1"></path>
            <path d="M249.08,255 C249.762928,256.742372 249.72507,258.684782 248.974769,260.39922 C248.224467,262.113659 246.823295,263.459432 245.08,264.14 L203.91,281.72 C200.320149,283.249829 196.169829,281.579851 194.64,277.99 C193.110171,274.400149 194.780149,270.249829 198.37,268.72 L239.51,251.14 C240.311566,250.782536 241.173206,250.578999 242.05,250.54 L242.13,250.54 C245.165229,250.375486 247.965025,252.17219 249.08,255 L249.08,255 Z" id="Shape" fill="#2B2B2B"></path>
            <polygon id="Shape" fill="#F5A623" points="207.42 29.59 60.85 92.28 60.44 92.47 25.83 77.67 172.83 14.82"></polygon>
            <path d="M165.78,152.87 L165.78,349.18 L15,284.7 L15,88.36 L57.33,106.47 L57.33,197.62 C57.3255203,200.069078 58.5923741,202.345011 60.6762632,203.631639 C62.7601522,204.918267 65.362464,205.031223 67.55,203.93 L90.17,192.61 L114.56,229.17 C115.331186,230.660771 116.61235,231.824819 118.17,232.45 C118.375122,232.536619 118.585547,232.610101 118.8,232.67 L118.8,232.67 C119.250667,232.798481 119.712902,232.88222 120.18,232.92 L120.89,232.92 L121.58,232.92 C121.82,232.92 122.06,232.84 122.3,232.78 L122.71,232.67 L122.96,232.62 C126.220203,231.588562 128.274955,228.371696 127.84,224.98 L127.84,136.67 L165.78,152.87 Z" id="Shape" fill="#F5A623"></path>
        </g>
    </g>
</svg>